<mxGraphModel dx="0" dy="0" grid="1" gridSize="10" guides="1" tooltips="1" connect="1" arrows="1" fold="1" page="0" pageScale="1" background="none" math="0" shadow="0">
  <root>
    <mxCell id="0" />
    <mxCell id="1" parent="0" />
    <mxCell id="node6" parent="1" vertex="1" value="&lt;p style=&quot;margin:0px;margin-top:4px;text-align:center;&quot;&gt;&lt;b&gt;Animal&lt;/b&gt;&lt;/p&gt;&lt;hr size=&quot;1&quot;/&gt;" style="verticalAlign=top;align=left;overflow=fill;fontSize=14;fontFamily=Helvetica;html=1;rounded=0;shadow=0;comic=0;labelBackgroundColor=none;strokeWidth=1;">
      <mxGeometry x="560" y="1564" width="97" height="31" as="geometry" />
    </mxCell>
    <mxCell id="node42" parent="1" vertex="1" value="&lt;p style=&quot;margin:0px;margin-top:4px;text-align:center;&quot;&gt;&lt;b&gt;AttackPopup&lt;/b&gt;&lt;/p&gt;&lt;hr size=&quot;1&quot;/&gt;" style="verticalAlign=top;align=left;overflow=fill;fontSize=14;fontFamily=Helvetica;html=1;rounded=0;shadow=0;comic=0;labelBackgroundColor=none;strokeWidth=1;">
      <mxGeometry x="-100" y="230" width="135" height="31" as="geometry" />
    </mxCell>
    <mxCell id="node46" parent="1" vertex="1" value="&lt;p style=&quot;margin:0px;margin-top:4px;text-align:center;&quot;&gt;&lt;b&gt;Board&lt;/b&gt;&lt;/p&gt;&lt;hr size=&quot;1&quot;/&gt;" style="verticalAlign=top;align=left;overflow=fill;fontSize=14;fontFamily=Helvetica;html=1;rounded=0;shadow=0;comic=0;labelBackgroundColor=none;strokeWidth=1;">
      <mxGeometry x="-100" y="34" width="90" height="31" as="geometry" />
    </mxCell>
    <mxCell id="node41" parent="1" vertex="1" value="&lt;p style=&quot;margin:0px;margin-top:4px;text-align:center;&quot;&gt;&lt;b&gt;BoardController&lt;/b&gt;&lt;/p&gt;&lt;hr size=&quot;1&quot;/&gt;" style="verticalAlign=top;align=left;overflow=fill;fontSize=14;fontFamily=Helvetica;html=1;rounded=0;shadow=0;comic=0;labelBackgroundColor=none;strokeWidth=1;">
      <mxGeometry x="-100" y="524" width="156" height="31" as="geometry" />
    </mxCell>
    <mxCell id="node26" parent="1" vertex="1" value="&lt;p style=&quot;margin:0px;margin-top:4px;text-align:center;&quot;&gt;&lt;b&gt;BuyController&lt;/b&gt;&lt;/p&gt;&lt;hr size=&quot;1&quot;/&gt;" style="verticalAlign=top;align=left;overflow=fill;fontSize=14;fontFamily=Helvetica;html=1;rounded=0;shadow=0;comic=0;labelBackgroundColor=none;strokeWidth=1;">
      <mxGeometry x="-100" y="1024" width="140" height="31" as="geometry" />
    </mxCell>
    <mxCell id="node51" parent="1" vertex="1" value="&lt;p style=&quot;margin:0px;margin-top:4px;text-align:center;&quot;&gt;&lt;b&gt;BuyDialog&lt;/b&gt;&lt;/p&gt;&lt;hr size=&quot;1&quot;/&gt;" style="verticalAlign=top;align=left;overflow=fill;fontSize=14;fontFamily=Helvetica;html=1;rounded=0;shadow=0;comic=0;labelBackgroundColor=none;strokeWidth=1;">
      <mxGeometry x="475" y="1515" width="119" height="31" as="geometry" />
    </mxCell>
    <mxCell id="node55" parent="1" vertex="1" value="&lt;p style=&quot;margin:0px;margin-top:4px;text-align:center;&quot;&gt;&lt;b&gt;Card&lt;/b&gt;&lt;/p&gt;&lt;hr size=&quot;1&quot;/&gt;" style="verticalAlign=top;align=left;overflow=fill;fontSize=14;fontFamily=Helvetica;html=1;rounded=0;shadow=0;comic=0;labelBackgroundColor=none;strokeWidth=1;">
      <mxGeometry x="530" y="1132" width="81" height="31" as="geometry" />
    </mxCell>
    <mxCell id="node5" parent="1" vertex="1" value="&lt;p style=&quot;margin:0px;margin-top:4px;text-align:center;&quot;&gt;&lt;b&gt;CardComponent&lt;/b&gt;&lt;/p&gt;&lt;hr size=&quot;1&quot;/&gt;" style="verticalAlign=top;align=left;overflow=fill;fontSize=14;fontFamily=Helvetica;html=1;rounded=0;shadow=0;comic=0;labelBackgroundColor=none;strokeWidth=1;">
      <mxGeometry x="687" y="1564" width="159" height="31" as="geometry" />
    </mxCell>
    <mxCell id="node28" parent="1" vertex="1" value="&lt;p style=&quot;margin:0px;margin-top:4px;text-align:center;&quot;&gt;&lt;b&gt;CardFactory&lt;/b&gt;&lt;/p&gt;&lt;hr size=&quot;1&quot;/&gt;" style="verticalAlign=top;align=left;overflow=fill;fontSize=14;fontFamily=Helvetica;html=1;rounded=0;shadow=0;comic=0;labelBackgroundColor=none;strokeWidth=1;">
      <mxGeometry x="-100" y="328" width="129" height="31" as="geometry" />
    </mxCell>
    <mxCell id="node12" parent="1" vertex="1" value="&lt;p style=&quot;margin:0px;margin-top:4px;text-align:center;&quot;&gt;&lt;b&gt;Carnivore&lt;/b&gt;&lt;/p&gt;&lt;hr size=&quot;1&quot;/&gt;" style="verticalAlign=top;align=left;overflow=fill;fontSize=14;fontFamily=Helvetica;html=1;rounded=0;shadow=0;comic=0;labelBackgroundColor=none;strokeWidth=1;">
      <mxGeometry x="697" y="1623" width="113" height="31" as="geometry" />
    </mxCell>
    <mxCell id="node53" parent="1" vertex="1" value="&lt;p style=&quot;margin:0px;margin-top:4px;text-align:center;&quot;&gt;&lt;b&gt;Deck&lt;/b&gt;&lt;/p&gt;&lt;hr size=&quot;1&quot;/&gt;" style="verticalAlign=top;align=left;overflow=fill;fontSize=14;fontFamily=Helvetica;html=1;rounded=0;shadow=0;comic=0;labelBackgroundColor=none;strokeWidth=1;">
      <mxGeometry x="-100" y="132" width="83" height="31" as="geometry" />
    </mxCell>
    <mxCell id="node54" parent="1" vertex="1" value="&lt;p style=&quot;margin:0px;margin-top:4px;text-align:center;&quot;&gt;&lt;b&gt;DeckContainer&lt;/b&gt;&lt;/p&gt;&lt;hr size=&quot;1&quot;/&gt;" style="verticalAlign=top;align=left;overflow=fill;fontSize=14;fontFamily=Helvetica;html=1;rounded=0;shadow=0;comic=0;labelBackgroundColor=none;strokeWidth=1;">
      <mxGeometry x="409" y="1191" width="147" height="31" as="geometry" />
    </mxCell>
    <mxCell id="node20" parent="1" vertex="1" value="&lt;p style=&quot;margin:0px;margin-top:4px;text-align:center;&quot;&gt;&lt;b&gt;DeckController&lt;/b&gt;&lt;/p&gt;&lt;hr size=&quot;1&quot;/&gt;" style="verticalAlign=top;align=left;overflow=fill;fontSize=14;fontFamily=Helvetica;html=1;rounded=0;shadow=0;comic=0;labelBackgroundColor=none;strokeWidth=1;">
      <mxGeometry x="81" y="426" width="149" height="31" as="geometry" />
    </mxCell>
    <mxCell id="node18" parent="1" vertex="1" value="&lt;p style=&quot;margin:0px;margin-top:4px;text-align:center;&quot;&gt;&lt;b&gt;DialogController&lt;/b&gt;&lt;/p&gt;&lt;hr size=&quot;1&quot;/&gt;" style="verticalAlign=top;align=left;overflow=fill;fontSize=14;fontFamily=Helvetica;html=1;rounded=0;shadow=0;comic=0;labelBackgroundColor=none;strokeWidth=1;">
      <mxGeometry x="92" y="622" width="161" height="31" as="geometry" />
    </mxCell>
    <mxCell id="node9" parent="1" vertex="1" value="&lt;p style=&quot;margin:0px;margin-top:4px;text-align:center;&quot;&gt;&lt;i&gt;&amp;lt;&amp;lt;interface&amp;gt;&amp;gt;&lt;/i&gt;&lt;br/&gt;&lt;b&gt;ExternalSaveLoadFile&lt;/b&gt;&lt;/p&gt;&lt;hr size=&quot;1&quot;/&gt;" style="verticalAlign=top;align=left;overflow=fill;fontSize=14;fontFamily=Helvetica;html=1;rounded=0;shadow=0;comic=0;labelBackgroundColor=none;strokeWidth=1;">
      <mxGeometry x="264" y="965" width="190" height="36" as="geometry" />
    </mxCell>
    <mxCell id="node14" parent="1" vertex="1" value="&lt;p style=&quot;margin:0px;margin-top:4px;text-align:center;&quot;&gt;&lt;b&gt;Farm&lt;/b&gt;&lt;/p&gt;&lt;hr size=&quot;1&quot;/&gt;" style="verticalAlign=top;align=left;overflow=fill;fontSize=14;fontFamily=Helvetica;html=1;rounded=0;shadow=0;comic=0;labelBackgroundColor=none;strokeWidth=1;">
      <mxGeometry x="70" y="181" width="83" height="31" as="geometry" />
    </mxCell>
    <mxCell id="node31" parent="1" vertex="1" value="&lt;p style=&quot;margin:0px;margin-top:4px;text-align:center;&quot;&gt;&lt;b&gt;GameData&lt;/b&gt;&lt;/p&gt;&lt;hr size=&quot;1&quot;/&gt;" style="verticalAlign=top;align=left;overflow=fill;fontSize=14;fontFamily=Helvetica;html=1;rounded=0;shadow=0;comic=0;labelBackgroundColor=none;strokeWidth=1;">
      <mxGeometry x="-100" y="279" width="121" height="31" as="geometry" />
    </mxCell>
    <mxCell id="node27" parent="1" vertex="1" value="&lt;p style=&quot;margin:0px;margin-top:4px;text-align:center;&quot;&gt;&lt;b&gt;GameState&lt;/b&gt;&lt;/p&gt;&lt;hr size=&quot;1&quot;/&gt;" style="verticalAlign=top;align=left;overflow=fill;fontSize=14;fontFamily=Helvetica;html=1;rounded=0;shadow=0;comic=0;labelBackgroundColor=none;strokeWidth=1;">
      <mxGeometry x="453" y="1299" width="123" height="31" as="geometry" />
    </mxCell>
    <mxCell id="node39" parent="1" vertex="1" value="&lt;p style=&quot;margin:0px;margin-top:4px;text-align:center;&quot;&gt;&lt;b&gt;GenericDialog&lt;/b&gt;&lt;/p&gt;&lt;hr size=&quot;1&quot;/&gt;" style="verticalAlign=top;align=left;overflow=fill;fontSize=14;fontFamily=Helvetica;html=1;rounded=0;shadow=0;comic=0;labelBackgroundColor=none;strokeWidth=1;">
      <mxGeometry x="-100" y="818" width="145" height="31" as="geometry" />
    </mxCell>
    <mxCell id="node11" parent="1" vertex="1" value="&lt;p style=&quot;margin:0px;margin-top:4px;text-align:center;&quot;&gt;&lt;b&gt;Header&lt;/b&gt;&lt;/p&gt;&lt;hr size=&quot;1&quot;/&gt;" style="verticalAlign=top;align=left;overflow=fill;fontSize=14;fontFamily=Helvetica;html=1;rounded=0;shadow=0;comic=0;labelBackgroundColor=none;strokeWidth=1;">
      <mxGeometry x="-100" y="-15" width="99" height="31" as="geometry" />
    </mxCell>
    <mxCell id="node13" parent="1" vertex="1" value="&lt;p style=&quot;margin:0px;margin-top:4px;text-align:center;&quot;&gt;&lt;b&gt;HeaderController&lt;/b&gt;&lt;/p&gt;&lt;hr size=&quot;1&quot;/&gt;" style="verticalAlign=top;align=left;overflow=fill;fontSize=14;fontFamily=Helvetica;html=1;rounded=0;shadow=0;comic=0;labelBackgroundColor=none;strokeWidth=1;">
      <mxGeometry x="288" y="769" width="165" height="31" as="geometry" />
    </mxCell>
    <mxCell id="node33" parent="1" vertex="1" value="&lt;p style=&quot;margin:0px;margin-top:4px;text-align:center;&quot;&gt;&lt;b&gt;Herbivore&lt;/b&gt;&lt;/p&gt;&lt;hr size=&quot;1&quot;/&gt;" style="verticalAlign=top;align=left;overflow=fill;fontSize=14;fontFamily=Helvetica;html=1;rounded=0;shadow=0;comic=0;labelBackgroundColor=none;strokeWidth=1;">
      <mxGeometry x="551" y="1623" width="116" height="31" as="geometry" />
    </mxCell>
    <mxCell id="node19" parent="1" vertex="1" value="&lt;p style=&quot;margin:0px;margin-top:4px;text-align:center;&quot;&gt;&lt;b&gt;HewanPopUp&lt;/b&gt;&lt;/p&gt;&lt;hr size=&quot;1&quot;/&gt;" style="verticalAlign=top;align=left;overflow=fill;fontSize=14;fontFamily=Helvetica;html=1;rounded=0;shadow=0;comic=0;labelBackgroundColor=none;strokeWidth=1;">
      <mxGeometry x="267" y="1083" width="141" height="31" as="geometry" />
    </mxCell>
    <mxCell id="node48" parent="1" vertex="1" value="&lt;p style=&quot;margin:0px;margin-top:4px;text-align:center;&quot;&gt;&lt;b&gt;Item&lt;/b&gt;&lt;/p&gt;&lt;hr size=&quot;1&quot;/&gt;" style="verticalAlign=top;align=left;overflow=fill;fontSize=14;fontFamily=Helvetica;html=1;rounded=0;shadow=0;comic=0;labelBackgroundColor=none;strokeWidth=1;">
      <mxGeometry x="551" y="1250" width="80" height="31" as="geometry" />
    </mxCell>
    <mxCell id="node1" parent="1" vertex="1" value="&lt;p style=&quot;margin:0px;margin-top:4px;text-align:center;&quot;&gt;&lt;b&gt;ItemAdded&lt;/b&gt;&lt;/p&gt;&lt;hr size=&quot;1&quot;/&gt;" style="verticalAlign=top;align=left;overflow=fill;fontSize=14;fontFamily=Helvetica;html=1;rounded=0;shadow=0;comic=0;labelBackgroundColor=none;strokeWidth=1;">
      <mxGeometry x="528" y="1407" width="125" height="31" as="geometry" />
    </mxCell>
    <mxCell id="node47" parent="1" vertex="1" value="&lt;p style=&quot;margin:0px;margin-top:4px;text-align:center;&quot;&gt;&lt;b&gt;ItemComponent&lt;/b&gt;&lt;/p&gt;&lt;hr size=&quot;1&quot;/&gt;" style="verticalAlign=top;align=left;overflow=fill;fontSize=14;fontFamily=Helvetica;html=1;rounded=0;shadow=0;comic=0;labelBackgroundColor=none;strokeWidth=1;">
      <mxGeometry x="51" y="475" width="158" height="31" as="geometry" />
    </mxCell>
    <mxCell id="node49" parent="1" vertex="1" value="&lt;p style=&quot;margin:0px;margin-top:4px;text-align:center;&quot;&gt;&lt;b&gt;LivingBeing&lt;/b&gt;&lt;/p&gt;&lt;hr size=&quot;1&quot;/&gt;" style="verticalAlign=top;align=left;overflow=fill;fontSize=14;fontFamily=Helvetica;html=1;rounded=0;shadow=0;comic=0;labelBackgroundColor=none;strokeWidth=1;">
      <mxGeometry x="625" y="1358" width="127" height="31" as="geometry" />
    </mxCell>
    <mxCell id="node10" parent="1" vertex="1" value="&lt;p style=&quot;margin:0px;margin-top:4px;text-align:center;&quot;&gt;&lt;b&gt;Main&lt;/b&gt;&lt;/p&gt;&lt;hr size=&quot;1&quot;/&gt;" style="verticalAlign=top;align=left;overflow=fill;fontSize=14;fontFamily=Helvetica;html=1;rounded=0;shadow=0;comic=0;labelBackgroundColor=none;strokeWidth=1;">
      <mxGeometry x="288" y="867" width="83" height="31" as="geometry" />
    </mxCell>
    <mxCell id="node34" parent="1" vertex="1" value="&lt;p style=&quot;margin:0px;margin-top:4px;text-align:center;&quot;&gt;&lt;b&gt;MainView&lt;/b&gt;&lt;/p&gt;&lt;hr size=&quot;1&quot;/&gt;" style="verticalAlign=top;align=left;overflow=fill;fontSize=14;fontFamily=Helvetica;html=1;rounded=0;shadow=0;comic=0;labelBackgroundColor=none;strokeWidth=1;">
      <mxGeometry x="216" y="720" width="115" height="31" as="geometry" />
    </mxCell>
    <mxCell id="node23" parent="1" vertex="1" value="&lt;p style=&quot;margin:0px;margin-top:4px;text-align:center;&quot;&gt;&lt;b&gt;MainViewController&lt;/b&gt;&lt;/p&gt;&lt;hr size=&quot;1&quot;/&gt;" style="verticalAlign=top;align=left;overflow=fill;fontSize=14;fontFamily=Helvetica;html=1;rounded=0;shadow=0;comic=0;labelBackgroundColor=none;strokeWidth=1;">
      <mxGeometry x="5" y="720" width="181" height="31" as="geometry" />
    </mxCell>
    <mxCell id="node3" parent="1" vertex="1" value="&lt;p style=&quot;margin:0px;margin-top:4px;text-align:center;&quot;&gt;&lt;b&gt;MessageDialog&lt;/b&gt;&lt;/p&gt;&lt;hr size=&quot;1&quot;/&gt;" style="verticalAlign=top;align=left;overflow=fill;fontSize=14;fontFamily=Helvetica;html=1;rounded=0;shadow=0;comic=0;labelBackgroundColor=none;strokeWidth=1;">
      <mxGeometry x="584" y="1672" width="153" height="31" as="geometry" />
    </mxCell>
    <mxCell id="node25" parent="1" vertex="1" value="&lt;p style=&quot;margin:0px;margin-top:4px;text-align:center;&quot;&gt;&lt;i&gt;&amp;lt;&amp;lt;interface&amp;gt;&amp;gt;&lt;/i&gt;&lt;br/&gt;&lt;b&gt;Observer&lt;/b&gt;&lt;/p&gt;&lt;hr size=&quot;1&quot;/&gt;" style="verticalAlign=top;align=left;overflow=fill;fontSize=14;fontFamily=Helvetica;html=1;rounded=0;shadow=0;comic=0;labelBackgroundColor=none;strokeWidth=1;">
      <mxGeometry x="732" y="1299" width="109" height="36" as="geometry" />
    </mxCell>
    <mxCell id="node38" parent="1" vertex="1" value="&lt;p style=&quot;margin:0px;margin-top:4px;text-align:center;&quot;&gt;&lt;b&gt;Omnivore&lt;/b&gt;&lt;/p&gt;&lt;hr size=&quot;1&quot;/&gt;" style="verticalAlign=top;align=left;overflow=fill;fontSize=14;fontFamily=Helvetica;html=1;rounded=0;shadow=0;comic=0;labelBackgroundColor=none;strokeWidth=1;">
      <mxGeometry x="767" y="1672" width="115" height="31" as="geometry" />
    </mxCell>
    <mxCell id="node2" parent="1" vertex="1" value="&lt;p style=&quot;margin:0px;margin-top:4px;text-align:center;&quot;&gt;&lt;b&gt;Plant&lt;/b&gt;&lt;/p&gt;&lt;hr size=&quot;1&quot;/&gt;" style="verticalAlign=top;align=left;overflow=fill;fontSize=14;fontFamily=Helvetica;html=1;rounded=0;shadow=0;comic=0;labelBackgroundColor=none;strokeWidth=1;">
      <mxGeometry x="667" y="1466" width="83" height="31" as="geometry" />
    </mxCell>
    <mxCell id="node17" parent="1" vertex="1" value="&lt;p style=&quot;margin:0px;margin-top:4px;text-align:center;&quot;&gt;&lt;b&gt;Player&lt;/b&gt;&lt;/p&gt;&lt;hr size=&quot;1&quot;/&gt;" style="verticalAlign=top;align=left;overflow=fill;fontSize=14;fontFamily=Helvetica;html=1;rounded=0;shadow=0;comic=0;labelBackgroundColor=none;strokeWidth=1;">
      <mxGeometry x="31" y="83" width="90" height="31" as="geometry" />
    </mxCell>
    <mxCell id="node8" parent="1" vertex="1" value="&lt;p style=&quot;margin:0px;margin-top:4px;text-align:center;&quot;&gt;&lt;b&gt;PluginController&lt;/b&gt;&lt;/p&gt;&lt;hr size=&quot;1&quot;/&gt;" style="verticalAlign=top;align=left;overflow=fill;fontSize=14;fontFamily=Helvetica;html=1;rounded=0;shadow=0;comic=0;labelBackgroundColor=none;strokeWidth=1;">
      <mxGeometry x="86" y="524" width="157" height="31" as="geometry" />
    </mxCell>
    <mxCell id="node24" parent="1" vertex="1" value="&lt;p style=&quot;margin:0px;margin-top:4px;text-align:center;&quot;&gt;&lt;b&gt;PluginDialog&lt;/b&gt;&lt;/p&gt;&lt;hr size=&quot;1&quot;/&gt;" style="verticalAlign=top;align=left;overflow=fill;fontSize=14;fontFamily=Helvetica;html=1;rounded=0;shadow=0;comic=0;labelBackgroundColor=none;strokeWidth=1;">
      <mxGeometry x="65" y="230" width="136" height="31" as="geometry" />
    </mxCell>
    <mxCell id="node40" parent="1" vertex="1" value="&lt;p style=&quot;margin:0px;margin-top:4px;text-align:center;&quot;&gt;&lt;b&gt;PluginManager&lt;/b&gt;&lt;/p&gt;&lt;hr size=&quot;1&quot;/&gt;" style="verticalAlign=top;align=left;overflow=fill;fontSize=14;fontFamily=Helvetica;html=1;rounded=0;shadow=0;comic=0;labelBackgroundColor=none;strokeWidth=1;">
      <mxGeometry x="-100" y="377" width="150" height="31" as="geometry" />
    </mxCell>
    <mxCell id="node44" parent="1" vertex="1" value="&lt;p style=&quot;margin:0px;margin-top:4px;text-align:center;&quot;&gt;&lt;b&gt;Popup&lt;/b&gt;&lt;/p&gt;&lt;hr size=&quot;1&quot;/&gt;" style="verticalAlign=top;align=left;overflow=fill;fontSize=14;fontFamily=Helvetica;html=1;rounded=0;shadow=0;comic=0;labelBackgroundColor=none;strokeWidth=1;">
      <mxGeometry x="291" y="1024" width="93" height="31" as="geometry" />
    </mxCell>
    <mxCell id="node0" parent="1" vertex="1" value="&lt;p style=&quot;margin:0px;margin-top:4px;text-align:center;&quot;&gt;&lt;b&gt;PopupController&lt;/b&gt;&lt;/p&gt;&lt;hr size=&quot;1&quot;/&gt;" style="verticalAlign=top;align=left;overflow=fill;fontSize=14;fontFamily=Helvetica;html=1;rounded=0;shadow=0;comic=0;labelBackgroundColor=none;strokeWidth=1;">
      <mxGeometry x="49" y="573" width="159" height="31" as="geometry" />
    </mxCell>
    <mxCell id="node7" parent="1" vertex="1" value="&lt;p style=&quot;margin:0px;margin-top:4px;text-align:center;&quot;&gt;&lt;b&gt;Product&lt;/b&gt;&lt;/p&gt;&lt;hr size=&quot;1&quot;/&gt;" style="verticalAlign=top;align=left;overflow=fill;fontSize=14;fontFamily=Helvetica;html=1;rounded=0;shadow=0;comic=0;labelBackgroundColor=none;strokeWidth=1;">
      <mxGeometry x="806" y="1358" width="101" height="31" as="geometry" />
    </mxCell>
    <mxCell id="node15" parent="1" vertex="1" value="&lt;p style=&quot;margin:0px;margin-top:4px;text-align:center;&quot;&gt;&lt;i&gt;&amp;lt;&amp;lt;interface&amp;gt;&amp;gt;&lt;/i&gt;&lt;br/&gt;&lt;b&gt;SaveLoadFile&lt;/b&gt;&lt;/p&gt;&lt;hr size=&quot;1&quot;/&gt;" style="verticalAlign=top;align=left;overflow=fill;fontSize=14;fontFamily=Helvetica;html=1;rounded=0;shadow=0;comic=0;labelBackgroundColor=none;strokeWidth=1;">
      <mxGeometry x="97" y="965" width="137" height="36" as="geometry" />
    </mxCell>
    <mxCell id="node45" parent="1" vertex="1" value="&lt;p style=&quot;margin:0px;margin-top:4px;text-align:center;&quot;&gt;&lt;b&gt;SaveLoadFileAdapter&lt;/b&gt;&lt;/p&gt;&lt;hr size=&quot;1&quot;/&gt;" style="verticalAlign=top;align=left;overflow=fill;fontSize=14;fontFamily=Helvetica;html=1;rounded=0;shadow=0;comic=0;labelBackgroundColor=none;strokeWidth=1;">
      <mxGeometry x="70" y="1024" width="191" height="31" as="geometry" />
    </mxCell>
    <mxCell id="node21" parent="1" vertex="1" value="&lt;p style=&quot;margin:0px;margin-top:4px;text-align:center;&quot;&gt;&lt;b&gt;SaveLoadTxt&lt;/b&gt;&lt;/p&gt;&lt;hr size=&quot;1&quot;/&gt;" style="verticalAlign=top;align=left;overflow=fill;fontSize=14;fontFamily=Helvetica;html=1;rounded=0;shadow=0;comic=0;labelBackgroundColor=none;strokeWidth=1;">
      <mxGeometry x="414" y="1024" width="134" height="31" as="geometry" />
    </mxCell>
    <mxCell id="node32" parent="1" vertex="1" value="&lt;p style=&quot;margin:0px;margin-top:4px;text-align:center;&quot;&gt;&lt;b&gt;SellCardComponent&lt;/b&gt;&lt;/p&gt;&lt;hr size=&quot;1&quot;/&gt;" style="verticalAlign=top;align=left;overflow=fill;fontSize=14;fontFamily=Helvetica;html=1;rounded=0;shadow=0;comic=0;labelBackgroundColor=none;strokeWidth=1;">
      <mxGeometry x="75" y="818" width="183" height="31" as="geometry" />
    </mxCell>
    <mxCell id="node30" parent="1" vertex="1" value="&lt;p style=&quot;margin:0px;margin-top:4px;text-align:center;&quot;&gt;&lt;b&gt;SellController&lt;/b&gt;&lt;/p&gt;&lt;hr size=&quot;1&quot;/&gt;" style="verticalAlign=top;align=left;overflow=fill;fontSize=14;fontFamily=Helvetica;html=1;rounded=0;shadow=0;comic=0;labelBackgroundColor=none;strokeWidth=1;">
      <mxGeometry x="-100" y="181" width="140" height="31" as="geometry" />
    </mxCell>
    <mxCell id="node35" parent="1" vertex="1" value="&lt;p style=&quot;margin:0px;margin-top:4px;text-align:center;&quot;&gt;&lt;b&gt;SellDialog&lt;/b&gt;&lt;/p&gt;&lt;hr size=&quot;1&quot;/&gt;" style="verticalAlign=top;align=left;overflow=fill;fontSize=14;fontFamily=Helvetica;html=1;rounded=0;shadow=0;comic=0;labelBackgroundColor=none;strokeWidth=1;">
      <mxGeometry x="-100" y="573" width="119" height="31" as="geometry" />
    </mxCell>
    <mxCell id="node16" parent="1" vertex="1" value="&lt;p style=&quot;margin:0px;margin-top:4px;text-align:center;&quot;&gt;&lt;b&gt;SeranganBeruangView&lt;/b&gt;&lt;/p&gt;&lt;hr size=&quot;1&quot;/&gt;" style="verticalAlign=top;align=left;overflow=fill;fontSize=14;fontFamily=Helvetica;html=1;rounded=0;shadow=0;comic=0;labelBackgroundColor=none;strokeWidth=1;">
      <mxGeometry x="174" y="916" width="199" height="31" as="geometry" />
    </mxCell>
    <mxCell id="node22" parent="1" vertex="1" value="&lt;p style=&quot;margin:0px;margin-top:4px;text-align:center;&quot;&gt;&lt;b&gt;ShuffleController&lt;/b&gt;&lt;/p&gt;&lt;hr size=&quot;1&quot;/&gt;" style="verticalAlign=top;align=left;overflow=fill;fontSize=14;fontFamily=Helvetica;html=1;rounded=0;shadow=0;comic=0;labelBackgroundColor=none;strokeWidth=1;">
      <mxGeometry x="-100" y="622" width="162" height="31" as="geometry" />
    </mxCell>
    <mxCell id="node4" parent="1" vertex="1" value="&lt;p style=&quot;margin:0px;margin-top:4px;text-align:center;&quot;&gt;&lt;b&gt;ShuffleView&lt;/b&gt;&lt;/p&gt;&lt;hr size=&quot;1&quot;/&gt;" style="verticalAlign=top;align=left;overflow=fill;fontSize=14;fontFamily=Helvetica;html=1;rounded=0;shadow=0;comic=0;labelBackgroundColor=none;strokeWidth=1;">
      <mxGeometry x="-100" y="671" width="128" height="31" as="geometry" />
    </mxCell>
    <mxCell id="node37" parent="1" vertex="1" value="&lt;p style=&quot;margin:0px;margin-top:4px;text-align:center;&quot;&gt;&lt;b&gt;Sidebar&lt;/b&gt;&lt;/p&gt;&lt;hr size=&quot;1&quot;/&gt;" style="verticalAlign=top;align=left;overflow=fill;fontSize=14;fontFamily=Helvetica;html=1;rounded=0;shadow=0;comic=0;labelBackgroundColor=none;strokeWidth=1;">
      <mxGeometry x="-100" y="83" width="101" height="31" as="geometry" />
    </mxCell>
    <mxCell id="node56" parent="1" vertex="1" value="&lt;p style=&quot;margin:0px;margin-top:4px;text-align:center;&quot;&gt;&lt;b&gt;SidebarController&lt;/b&gt;&lt;/p&gt;&lt;hr size=&quot;1&quot;/&gt;" style="verticalAlign=top;align=left;overflow=fill;fontSize=14;fontFamily=Helvetica;html=1;rounded=0;shadow=0;comic=0;labelBackgroundColor=none;strokeWidth=1;">
      <mxGeometry x="-100" y="965" width="167" height="31" as="geometry" />
    </mxCell>
    <mxCell id="node43" parent="1" vertex="1" value="&lt;p style=&quot;margin:0px;margin-top:4px;text-align:center;&quot;&gt;&lt;b&gt;Store&lt;/b&gt;&lt;/p&gt;&lt;hr size=&quot;1&quot;/&gt;" style="verticalAlign=top;align=left;overflow=fill;fontSize=14;fontFamily=Helvetica;html=1;rounded=0;shadow=0;comic=0;labelBackgroundColor=none;strokeWidth=1;">
      <mxGeometry x="469" y="1672" width="85" height="31" as="geometry" />
    </mxCell>
    <mxCell id="node29" parent="1" vertex="1" value="&lt;p style=&quot;margin:0px;margin-top:4px;text-align:center;&quot;&gt;&lt;b&gt;StoreController&lt;/b&gt;&lt;/p&gt;&lt;hr size=&quot;1&quot;/&gt;" style="verticalAlign=top;align=left;overflow=fill;fontSize=14;fontFamily=Helvetica;html=1;rounded=0;shadow=0;comic=0;labelBackgroundColor=none;strokeWidth=1;">
      <mxGeometry x="-100" y="426" width="151" height="31" as="geometry" />
    </mxCell>
    <mxCell id="node50" parent="1" vertex="1" value="&lt;p style=&quot;margin:0px;margin-top:4px;text-align:center;&quot;&gt;&lt;b&gt;StoreView&lt;/b&gt;&lt;/p&gt;&lt;hr size=&quot;1&quot;/&gt;" style="verticalAlign=top;align=left;overflow=fill;fontSize=14;fontFamily=Helvetica;html=1;rounded=0;shadow=0;comic=0;labelBackgroundColor=none;strokeWidth=1;">
      <mxGeometry x="27" y="916" width="117" height="31" as="geometry" />
    </mxCell>
    <mxCell id="node36" parent="1" vertex="1" value="&lt;p style=&quot;margin:0px;margin-top:4px;text-align:center;&quot;&gt;&lt;b&gt;TanamanPopup&lt;/b&gt;&lt;/p&gt;&lt;hr size=&quot;1&quot;/&gt;" style="verticalAlign=top;align=left;overflow=fill;fontSize=14;fontFamily=Helvetica;html=1;rounded=0;shadow=0;comic=0;labelBackgroundColor=none;strokeWidth=1;">
      <mxGeometry x="346" y="1132" width="154" height="31" as="geometry" />
    </mxCell>
    <mxCell id="node52" parent="1" vertex="1" value="&lt;p style=&quot;margin:0px;margin-top:4px;text-align:center;&quot;&gt;&lt;b&gt;WinDialog&lt;/b&gt;&lt;/p&gt;&lt;hr size=&quot;1&quot;/&gt;" style="verticalAlign=top;align=left;overflow=fill;fontSize=14;fontFamily=Helvetica;html=1;rounded=0;shadow=0;comic=0;labelBackgroundColor=none;strokeWidth=1;">
      <mxGeometry x="-100" y="475" width="121" height="31" as="geometry" />
    </mxCell>
    <mxCell id="edge5" edge="1" value="" parent="1" source="node6" target="node49" style="html=1;rounded=1;edgeStyle=orthogonalEdgeStyle;dashed=0;startArrow=none;endArrow=block;endSize=12;strokeColor=#000082;exitX=0.500;exitY=0.001;exitDx=0;exitDy=0;entryX=0.500;entryY=1.002;entryDx=0;entryDy=0;">
      <mxGeometry width="50" height="50" relative="1" as="geometry">
        <Array as="points">
          <mxPoint x="609" y="1456" />
          <mxPoint x="668" y="1456" />
          <mxPoint x="668" y="1412" />
          <mxPoint x="688" y="1412" />
        </Array>
      </mxGeometry>
    </mxCell>
    <mxCell id="edge9" edge="1" value="" parent="1" source="node5" target="node25" style="html=1;rounded=1;edgeStyle=orthogonalEdgeStyle;dashed=1;startArrow=none;endArrow=block;endSize=12;strokeColor=#008200;exitX=0.500;exitY=0.001;exitDx=0;exitDy=0;entryX=0.500;entryY=1.001;entryDx=0;entryDy=0;">
      <mxGeometry width="50" height="50" relative="1" as="geometry">
        <Array as="points">
          <mxPoint x="767" y="1348" />
          <mxPoint x="787" y="1348" />
        </Array>
      </mxGeometry>
    </mxCell>
    <mxCell id="edge13" edge="1" value="" parent="1" source="node12" target="node6" style="html=1;rounded=1;edgeStyle=orthogonalEdgeStyle;dashed=0;startArrow=none;endArrow=block;endSize=12;strokeColor=#000082;exitX=0.500;exitY=0.001;exitDx=0;exitDy=0;entryX=0.500;entryY=1.001;entryDx=0;entryDy=0;">
      <mxGeometry width="50" height="50" relative="1" as="geometry">
        <Array as="points">
          <mxPoint x="753" y="1613" />
          <mxPoint x="609" y="1613" />
        </Array>
      </mxGeometry>
    </mxCell>
    <mxCell id="edge3" edge="1" value="" parent="1" source="node33" target="node6" style="html=1;rounded=1;edgeStyle=orthogonalEdgeStyle;dashed=0;startArrow=none;endArrow=block;endSize=12;strokeColor=#000082;exitX=0.500;exitY=0.001;exitDx=0;exitDy=0;entryX=0.500;entryY=1.001;entryDx=0;entryDy=0;">
      <mxGeometry width="50" height="50" relative="1" as="geometry">
        <Array as="points" />
      </mxGeometry>
    </mxCell>
    <mxCell id="edge7" edge="1" value="" parent="1" source="node19" target="node44" style="html=1;rounded=1;edgeStyle=orthogonalEdgeStyle;dashed=0;startArrow=none;endArrow=block;endSize=12;strokeColor=#000082;exitX=0.500;exitY=0.001;exitDx=0;exitDy=0;entryX=0.500;entryY=1.001;entryDx=0;entryDy=0;">
      <mxGeometry width="50" height="50" relative="1" as="geometry">
        <Array as="points" />
      </mxGeometry>
    </mxCell>
    <mxCell id="edge2" edge="1" value="" parent="1" source="node48" target="node55" style="html=1;rounded=1;edgeStyle=orthogonalEdgeStyle;dashed=0;startArrow=none;endArrow=block;endSize=12;strokeColor=#000082;exitX=0.500;exitY=0.001;exitDx=0;exitDy=0;entryX=0.500;entryY=1.001;entryDx=0;entryDy=0;">
      <mxGeometry width="50" height="50" relative="1" as="geometry">
        <Array as="points">
          <mxPoint x="591" y="1181" />
          <mxPoint x="571" y="1181" />
        </Array>
      </mxGeometry>
    </mxCell>
    <mxCell id="edge14" edge="1" value="" parent="1" source="node1" target="node48" style="html=1;rounded=1;edgeStyle=orthogonalEdgeStyle;dashed=0;startArrow=none;endArrow=block;endSize=12;strokeColor=#000082;exitX=0.500;exitY=0.001;exitDx=0;exitDy=0;entryX=0.500;entryY=1.001;entryDx=0;entryDy=0;">
      <mxGeometry width="50" height="50" relative="1" as="geometry">
        <Array as="points" />
      </mxGeometry>
    </mxCell>
    <mxCell id="edge4" edge="1" value="" parent="1" source="node49" target="node55" style="html=1;rounded=1;edgeStyle=orthogonalEdgeStyle;dashed=0;startArrow=none;endArrow=block;endSize=12;strokeColor=#000082;exitX=0.500;exitY=0.001;exitDx=0;exitDy=0;entryX=0.500;entryY=1.001;entryDx=0;entryDy=0;">
      <mxGeometry width="50" height="50" relative="1" as="geometry">
        <Array as="points">
          <mxPoint x="688" y="1240" />
          <mxPoint x="571" y="1240" />
        </Array>
      </mxGeometry>
    </mxCell>
    <mxCell id="edge10" edge="1" value="" parent="1" source="node38" target="node6" style="html=1;rounded=1;edgeStyle=orthogonalEdgeStyle;dashed=0;startArrow=none;endArrow=block;endSize=12;strokeColor=#000082;exitX=0.500;exitY=0.001;exitDx=0;exitDy=0;entryX=0.500;entryY=1.001;entryDx=0;entryDy=0;">
      <mxGeometry width="50" height="50" relative="1" as="geometry">
        <Array as="points">
          <mxPoint x="825" y="1613" />
          <mxPoint x="609" y="1613" />
        </Array>
      </mxGeometry>
    </mxCell>
    <mxCell id="edge11" edge="1" value="" parent="1" source="node2" target="node49" style="html=1;rounded=1;edgeStyle=orthogonalEdgeStyle;dashed=0;startArrow=none;endArrow=block;endSize=12;strokeColor=#000082;exitX=0.250;exitY=0.001;exitDx=0;exitDy=0;entryX=0.500;entryY=1.001;entryDx=0;entryDy=0;">
      <mxGeometry width="50" height="50" relative="1" as="geometry">
        <Array as="points" />
      </mxGeometry>
    </mxCell>
    <mxCell id="edge6" edge="1" value="" parent="1" source="node2" target="node25" style="html=1;rounded=1;edgeStyle=orthogonalEdgeStyle;dashed=1;startArrow=none;endArrow=block;endSize=12;strokeColor=#008200;exitX=0.750;exitY=0.001;exitDx=0;exitDy=0;entryX=0.500;entryY=1.001;entryDx=0;entryDy=0;">
      <mxGeometry width="50" height="50" relative="1" as="geometry">
        <Array as="points">
          <mxPoint x="730" y="1456" />
          <mxPoint x="787" y="1456" />
        </Array>
      </mxGeometry>
    </mxCell>
    <mxCell id="edge1" edge="1" value="" parent="1" source="node7" target="node55" style="html=1;rounded=1;edgeStyle=orthogonalEdgeStyle;dashed=0;startArrow=none;endArrow=block;endSize=12;strokeColor=#000082;exitX=0.500;exitY=0.001;exitDx=0;exitDy=0;entryX=0.500;entryY=1.001;entryDx=0;entryDy=0;">
      <mxGeometry width="50" height="50" relative="1" as="geometry">
        <Array as="points">
          <mxPoint x="856" y="1181" />
          <mxPoint x="571" y="1181" />
        </Array>
      </mxGeometry>
    </mxCell>
    <mxCell id="edge0" edge="1" value="" parent="1" source="node45" target="node15" style="html=1;rounded=1;edgeStyle=orthogonalEdgeStyle;dashed=1;startArrow=none;endArrow=block;endSize=12;strokeColor=#008200;exitX=0.500;exitY=0.001;exitDx=0;exitDy=0;entryX=0.500;entryY=1.001;entryDx=0;entryDy=0;">
      <mxGeometry width="50" height="50" relative="1" as="geometry">
        <Array as="points" />
      </mxGeometry>
    </mxCell>
    <mxCell id="edge15" edge="1" value="" parent="1" source="node21" target="node15" style="html=1;rounded=1;edgeStyle=orthogonalEdgeStyle;dashed=1;startArrow=none;endArrow=block;endSize=12;strokeColor=#008200;exitX=0.500;exitY=0.001;exitDx=0;exitDy=0;entryX=0.500;entryY=1.001;entryDx=0;entryDy=0;">
      <mxGeometry width="50" height="50" relative="1" as="geometry">
        <Array as="points">
          <mxPoint x="481" y="1014" />
          <mxPoint x="166" y="1014" />
        </Array>
      </mxGeometry>
    </mxCell>
    <mxCell id="edge12" edge="1" value="" parent="1" source="node16" target="node34" style="html=1;rounded=1;edgeStyle=orthogonalEdgeStyle;dashed=0;startArrow=none;endArrow=block;endSize=12;strokeColor=#000082;exitX=0.500;exitY=0.001;exitDx=0;exitDy=0;entryX=0.500;entryY=1.001;entryDx=0;entryDy=0;">
      <mxGeometry width="50" height="50" relative="1" as="geometry">
        <Array as="points" />
      </mxGeometry>
    </mxCell>
    <mxCell id="edge8" edge="1" value="" parent="1" source="node36" target="node44" style="html=1;rounded=1;edgeStyle=orthogonalEdgeStyle;dashed=0;startArrow=none;endArrow=block;endSize=12;strokeColor=#000082;exitX=0.500;exitY=0.001;exitDx=0;exitDy=0;entryX=0.500;entryY=1.001;entryDx=0;entryDy=0;">
      <mxGeometry width="50" height="50" relative="1" as="geometry">
        <Array as="points">
          <mxPoint x="423" y="1073" />
          <mxPoint x="338" y="1073" />
        </Array>
      </mxGeometry>
    </mxCell>
  </root>
</mxGraphModel>